<svg viewBox="0 0 64 64" xmlns="http://www.w3.org/2000/svg" fill="#000000">
  <g id="SVGRepo_bgCarrier" stroke-width="0"></g>
  <g id="SVGRepo_tracerCarrier" stroke-linecap="round" stroke-linejoin="round"></g>
  <g id="SVGRepo_iconCarrier"> 
    <g fill="none" fill-rule="evenodd"> 
      <!-- Zahnform (Hintergrund) -->
      <path fill="#E8F4FD" d="M12,28 C13.5,40 17,58 22,58 C26,58 26.5,33 31.5,33 C36.5,33 37,58 41,58 C46,58 49.5,40 51,28 C51,18 46,11 41,11 C37,11 34,14 31.5,14 C29,14 26,11 22,11 C17,11 12,18 12,28 Z"></path>
      
      <!-- Unsichtbare Aligner (transparent mit Glanz) -->
      <path fill="#B4DFFB" fill-opacity="0.7" d="M14,26 C15.2,36 18,52 22,52 C25,52 25.5,31 31.5,31 C37.5,31 38,52 41,52 C45,52 47.8,36 49,26 C49,18 45,13 41,13 C37,13 34.5,15.5 31.5,15.5 C28.5,15.5 26,13 22,13 C18,13 14,18 14,26 Z"></path>
      
      <!-- Glanz-Effekt (weiße Linien) -->
      <path stroke="#FFFFFF" stroke-linecap="round" stroke-width="1.5" d="M18,20 L18,20 C21,20 24,17 24,14"></path>
      <path stroke="#FFFFFF" stroke-linecap="round" stroke-width="1.5" d="M40,20 L40,20 C37,20 34,17 34,14"></path>
      
      <!-- Aligner-Rand (dünne Linie) -->
      <path stroke="#5EA7FF" stroke-linecap="round" stroke-width="1" d="M16,24 C17.5,34 20.5,48 24,48 C27,48 27.5,29 33.5,29 C39.5,29 40,48 43,48 C46.5,48 49.5,34 51,24"></path>
      
      <!-- Kleine Glanzpunkte -->
      <circle fill="#FFFFFF" cx="20" cy="18" r="1"></circle>
      <circle fill="#FFFFFF" cx="44" cy="18" r="1"></circle>
    </g> 
  </g>
</svg>
