<svg viewBox="0 0 64 64" xmlns="http://www.w3.org/2000/svg" fill="#000000">
  <g id="SVGRepo_bgCarrier" stroke-width="0"></g>
  <g id="SVGRepo_tracerCarrier" stroke-linecap="round" stroke-linejoin="round"></g>
  <g id="SVGRepo_iconCarrier"> 
    <g fill="none" fill-rule="evenodd"> 
      <!-- Zahnform (Hintergrund) -->
      <path fill="#E8F4FD" d="M12,28 C13.5,40 17,58 22,58 C26,58 26.5,33 31.5,33 C36.5,33 37,58 41,58 C46,58 49.5,40 51,28 C51,18 46,11 41,11 C37,11 34,14 31.5,14 C29,14 26,11 22,11 C17,11 12,18 12,28 Z"></path>
      
      <!-- Feste Spange - Brackets -->
      <rect fill="#5EA7FF" x="18" y="20" width="4" height="6" rx="1"></rect>
      <rect fill="#5EA7FF" x="26" y="20" width="4" height="6" rx="1"></rect>
      <rect fill="#5EA7FF" x="34" y="20" width="4" height="6" rx="1"></rect>
      <rect fill="#5EA7FF" x="42" y="20" width="4" height="6" rx="1"></rect>
      
      <!-- Draht -->
      <path stroke="#FFD700" stroke-linecap="round" stroke-width="2" d="M16,23 L48,23"></path>
      
      <!-- Gummibänder -->
      <circle fill="#FF6B9D" cx="20" cy="23" r="1.5"></circle>
      <circle fill="#FF6B9D" cx="28" cy="23" r="1.5"></circle>
      <circle fill="#FF6B9D" cx="36" cy="23" r="1.5"></circle>
      <circle fill="#FF6B9D" cx="44" cy="23" r="1.5"></circle>
      
      <!-- Kleine Details -->
      <circle fill="#FFFFFF" cx="20" cy="23" r="0.5"></circle>
      <circle fill="#FFFFFF" cx="28" cy="23" r="0.5"></circle>
      <circle fill="#FFFFFF" cx="36" cy="23" r="0.5"></circle>
      <circle fill="#FFFFFF" cx="44" cy="23" r="0.5"></circle>
    </g> 
  </g>
</svg>
