<svg viewBox="0 0 64 64" xmlns="http://www.w3.org/2000/svg" fill="#000000">
  <g id="SVGRepo_bgCarrier" stroke-width="0"></g>
  <g id="SVGRepo_tracerCarrier" stroke-linecap="round" stroke-linejoin="round"></g>
  <g id="SVGRepo_iconCarrier"> 
    <g fill="none" fill-rule="evenodd"> 
      <!-- Kleinere Zahnform (Kinder) -->
      <path fill="#E8F4FD" d="M15,30 C16,40 18,56 22,56 C25,56 25.5,35 31.5,35 C37.5,35 38,56 41,56 C45,56 47,40 48,30 C48,20 45,13 41,13 C37,13 34,15.5 31.5,15.5 C29,15.5 26,13 22,13 C18,13 15,20 15,30 Z"></path>
      
      <!-- Sanfte Frühbehandlung -->
      <path fill="#FFB6C1" fill-opacity="0.6" d="M17,28 C17.5,36 19,50 22,50 C24,50 24.5,33 31.5,33 C38.5,33 39,50 41,50 C44,50 45.5,36 46,28 C46,20 44,15 41,15 C37,15 34.5,17 31.5,17 C28.5,17 26,15 22,15 C19,15 17,20 17,28 Z"></path>
      
      <!-- Sanfte Klammern -->
      <rect fill="#FF69B4" x="20" y="22" width="2" height="3" rx="0.5"></rect>
      <rect fill="#FF69B4" x="26" y="22" width="2" height="3" rx="0.5"></rect>
      <rect fill="#FF69B4" x="32" y="22" width="2" height="3" rx="0.5"></rect>
      <rect fill="#FF69B4" x="38" y="22" width="2" height="3" rx="0.5"></rect>
      
      <!-- Sanfter Draht -->
      <path stroke="#FFC0CB" stroke-linecap="round" stroke-width="1.5" d="M18,24 L46,24"></path>
      
      <!-- Spielerische Elemente -->
      <circle fill="#FFD700" cx="22" cy="20" r="1"></circle>
      <circle fill="#FFD700" cx="30" cy="20" r="1"></circle>
      <circle fill="#FFD700" cx="38" cy="20" r="1"></circle>
      
      <!-- Glanz-Effekte -->
      <path stroke="#FFFFFF" stroke-linecap="round" stroke-width="1" d="M20,18 L20,18 C22,18 24,16 24,14"></path>
      <path stroke="#FFFFFF" stroke-linecap="round" stroke-width="1" d="40,18 L40,18 C38,18 36,16 36,14"></path>
    </g> 
  </g>
</svg>


